<svg width="22" height="22" viewBox="0 0 22 22" fill="none" xmlns="http://www.w3.org/2000/svg">
<g clip-path="url(#clip0_105_455)">
<path d="M19.7218 2.1395L14.8693 6.47563C13.5449 5.25878 11.805 4.47242 9.86667 4.3635C5.42056 4.11364 1.61024 7.5185 1.36039 11.9646C1.11032 16.4146 4.5154 20.221 8.96151 20.4709C13.4076 20.7207 17.2177 17.3198 17.4678 12.8698C17.5767 10.9314 16.9939 9.11853 15.9331 7.6661L20.7817 3.32975C21.1113 3.03527 21.1395 2.53216 20.8451 2.20262C20.5545 1.8733 20.0475 1.84481 19.7218 2.1395ZM15.8648 12.7797C15.6647 16.3405 12.6083 19.0717 9.05136 18.8719C5.49448 18.672 2.75933 15.6153 2.95943 12.0545C3.15931 8.49758 6.21993 5.76265 9.77681 5.96254C13.3337 6.16242 16.0647 9.22281 15.8648 12.7797Z" fill="#718EBF"/>
</g>
<defs>
<clipPath id="clip0_105_455">
<rect width="20" height="20" fill="white" transform="translate(0.454681 20.4232) rotate(-86.7836)"/>
</clipPath>
</defs>
</svg>
